<svg width="100" height="50" xmlns="http://www.w3.org/2000/svg" xmlns:xlink="http://www.w3.org/1999/xlink">
 <!-- Created with Method Draw - http://github.com/duopixel/Method-Draw/ -->

 <g>
  <title>background</title>
  <rect fill="#fff" id="canvas_background" height="52" width="102" y="-1" x="-1"/>
  <g display="none" overflow="visible" y="0" x="0" height="100%" width="100%" id="canvasGrid">
   <rect fill="url(#gridpattern)" stroke-width="0" y="0" x="0" height="100%" width="100%"/>
  </g>
 </g>
 <g>
  <title>Layer 1</title>
  <g id="svg_30">
   <g transform="matrix(1.0519396326088923,0,0,1.0519396326088923,0,0) " id="svg_28">
    <title transform="translate(-155.90248107910156,-165.4087371826172) translate(156.05621337890625,0) translate(0,165.12496948242188) ">background</title>
    <rect x="-0.846268" y="-1.283768" width="132" height="52" id="svg_26" fill="none"/>
   </g>
   <g transform="matrix(1.0519396326088923,0,0,1.0519396326088923,0,0) " id="svg_29">
    <title transform="translate(-155.90248107910156,-165.4087371826172) translate(156.05621337890625,0) translate(0,165.12496948242188) ">Layer 1</title>
    <line id="svg_22" x2="240.403744" y2="11.216493" y1="11.216493" stroke="#000000" x1="0.403744"/>
    <use y="6.250025" xlink:href="#svg_22" id="svg_25" x="-0.249999"/>
    <use y="12.375028" xlink:href="#svg_22" id="svg_24" x="-0.625053"/>
    <use y="18.750035" xlink:href="#svg_22" id="svg_23" x="-0.458299"/>
    <use y="24.875038" xlink:href="#svg_22" id="svg_21" x="-0.750056"/>
    <metadata transform="translate(-155.90248107910156,-165.4087371826172) translate(156.05621337890625,0) translate(0,165.12496948242188) " id="svg_20">image/svg+xml</metadata>
    <metadata transform="translate(-155.90248107910156,-165.4087371826172) translate(156.05621337890625,0) translate(0,165.12496948242188) " id="svg_19">image/svg+xml</metadata>
    <g id="svg_15" stroke="null">
     <g id="svg_16" transform="matrix(0.7039891712380218,0,0,0.6979156750159846,-20.42729141348187,-22.983517212766166) " stroke="null">
      <path id="svg_18" d="m40.016879,91.511519c-0.39184,2.09197 1.79068,6.43638 6.18165,6.5783c5.30834,0.17158 8.69974,-3.88907 7.11975,-10.5161l-7.92379,-36.56936c-0.94326,-4.35326 -0.23526,-6.71442 0.2684,-8.12158c1.34374,-3.75419 4.70088,-5.30264 5.51819,-4.10073c0.46663,0.6862 1.59491,3.8948 -1.61685,9.64161c-2.5049,4.48202 -14.1593,10.35932 -15.01458,20.87719c-0.74042,9.14624 8.83399,15.90129 17.09757,13.24573c5.48642,-1.7631 8.31469,-10.08972 4.91879,-14.38475c-8.96182,-11.33462 -23.33436,6.01227 -9.4115,10.76451c-1.51396,-1.19112 -2.54591,-2.11345 -2.73806,-3.24078c-1.87075,-10.97578 14.63268,-8.07798 10.18599,2.33463c-1.82849,4.2817 -9.21415,5.10997 -13.42022,1.29008c-3.52342,-3.19991 -5.08688,-9.3642 -1.16594,-13.78954c5.3105,-5.99367 11.58045,-11.37423 13.24573,-19.57915c1.96925,-9.70259 -4.46024,-17.26685 -8.52503,-7.7229c-1.36394,3.20245 -1.87201,6.41723 -0.56602,12.57769l7.91754,37.34768c0.56684,2.67382 0.18736,6.35321 -2.30818,8.04426c-1.23618,0.83768 -5.61059,1.4142 -6.68079,-0.58538" stroke-miterlimit="4" stroke-width="0.1" fill-rule="nonzero" fill="black" stroke="black"/>
      <path d="m39.956119,91.825679a-3.73239,-3.79651 0 1 1 7.46477,0.14012a-3.73239,-3.79651 0 1 1 -7.46477,-0.14012z" id="svg_17" stroke-miterlimit="4" stroke-width="0.092139" fill="black" stroke="black"/>
     </g>
    </g>
   </g>
  </g>
 </g>
</svg>