<svg width="130" height="50" xmlns="http://www.w3.org/2000/svg" xmlns:xlink="http://www.w3.org/1999/xlink">

 <g>
  <title>background</title>
  <rect fill="none" id="canvas_background" height="52" width="132" y="-1" x="-1"/>
 </g>
 <g>
  <title>Layer 1</title>
  <line x1="0.250012" stroke="#000000" y1="11.500261" y2="11.500261" x2="240.250012" id="rl"/>
  <use x="-0.249999" id="svg_1" xlink:href="#rl" y="6.250025"/>
  <use x="-0.625053" id="svg_2" xlink:href="#rl" y="12.375028"/>
  <use x="-0.458299" id="svg_3" xlink:href="#rl" y="18.750035"/>
  <use x="-0.750056" id="svg_4" xlink:href="#rl" y="24.875038"/>
  <metadata transform="matrix(0.19753245660137342,0,0,0.19753245660137342,0,0) " id="svg_15">image/svg+xml</metadata>

  <metadata transform="matrix(0.4444044175153614,0,0,0.4444044175153614,0,0) " id="svg_29">image/svg+xml</metadata>

  <g stroke="null" id="svg_31">
   <g stroke="null" transform="matrix(0.7039891712380218,0,0,0.6979156750159846,-20.42729141348187,-22.983517212766166) " id="svg_26">
    <path stroke="black" fill="black" fill-rule="nonzero" stroke-width="0.1" stroke-miterlimit="4" d="m39.798511,91.918123c-0.39184,2.09197 1.79068,6.43638 6.18165,6.5783c5.30834,0.17158 8.69974,-3.88907 7.11975,-10.5161l-7.92379,-36.56936c-0.94326,-4.35326 -0.23526,-6.71442 0.2684,-8.12158c1.34374,-3.75419 4.70088,-5.30264 5.51819,-4.10073c0.46663,0.6862 1.59491,3.8948 -1.61685,9.64161c-2.5049,4.48202 -14.1593,10.35932 -15.01458,20.87719c-0.74042,9.14624 8.83399,15.90129 17.09757,13.24573c5.48642,-1.7631 8.31469,-10.08972 4.91879,-14.38475c-8.96182,-11.33462 -23.33436,6.01227 -9.4115,10.76451c-1.51396,-1.19112 -2.54591,-2.11345 -2.73806,-3.24078c-1.87075,-10.97578 14.63268,-8.07798 10.18599,2.33463c-1.82849,4.2817 -9.21415,5.10997 -13.42022,1.29008c-3.52342,-3.19991 -5.08688,-9.3642 -1.16594,-13.78954c5.3105,-5.99367 11.58045,-11.37423 13.24573,-19.57915c1.96925,-9.70259 -4.46024,-17.26685 -8.52503,-7.7229c-1.36394,3.20245 -1.87201,6.41723 -0.56602,12.57769l7.91754,37.34768c0.56684,2.67382 0.18736,6.35321 -2.30818,8.04426c-1.23618,0.83768 -5.61059,1.4142 -6.68079,-0.58538" id="svg_28"/>
    <path stroke="black" fill="black" stroke-width="0.092139" stroke-miterlimit="4" id="svg_27" d="m39.737755,92.232277a-3.73239,-3.796509 0 1 1 7.464768,0.140119a-3.73239,-3.796509 0 1 1 -7.464768,-0.140119z"/>
   </g>
  </g>
 </g>
</svg>